<?xml version="1.0" standalone="no"?>
<!DOCTYPE svg PUBLIC "-//W3C//DTD SVG 20010904//EN"
 "http://www.w3.org/TR/2001/REC-SVG-20010904/DTD/svg10.dtd">
<svg version="1.0" xmlns="http://www.w3.org/2000/svg"
 width="512.000000pt" height="512.000000pt" viewBox="0 0 512.000000 512.000000"
 preserveAspectRatio="xMidYMid meet">

<g transform="translate(0.000000,512.000000) scale(0.100000,-0.100000)"
fill="#000000" stroke="none">
<path d="M3934 5105 c-38 -20 -64 -63 -64 -107 0 -19 43 -160 95 -314 53 -153
94 -285 93 -293 -3 -16 -86 -43 -93 -31 -3 5 -46 129 -96 277 -50 147 -97 280
-105 295 -23 45 -62 68 -113 68 -40 0 -52 -5 -79 -33 -19 -19 -35 -48 -38 -68
-6 -37 -3 -47 120 -404 42 -120 73 -222 68 -226 -15 -14 -84 -31 -91 -23 -5 5
-52 138 -105 296 -112 328 -120 341 -205 342 -43 1 -54 -3 -84 -32 -63 -61
-68 -38 97 -520 31 -90 56 -167 56 -171 0 -7 -91 -44 -95 -39 -1 2 -48 135
-103 297 -113 330 -119 341 -200 349 -76 7 -132 -42 -132 -116 0 -17 45 -161
100 -321 l99 -291 -23 -15 c-29 -19 -46 -56 -46 -101 0 -51 119 -391 149 -428
5 -6 24 -38 42 -71 72 -133 222 -299 363 -399 68 -48 215 -126 238 -126 21 0
33 -16 56 -75 30 -76 231 -540 278 -643 13 -29 24 -55 24 -59 0 -4 13 -36 30
-72 16 -36 64 -147 106 -246 42 -99 93 -216 111 -260 19 -44 45 -105 58 -135
33 -81 54 -129 80 -185 12 -27 41 -95 64 -150 23 -55 55 -129 70 -165 79 -179
102 -233 140 -325 50 -120 92 -165 153 -165 22 0 52 7 67 15 27 14 61 68 61
97 0 8 -144 588 -320 1289 -310 1238 -319 1275 -302 1299 125 185 185 446 162
708 -12 134 -22 186 -60 316 -83 285 -111 330 -205 324 l-53 -3 -92 275 c-51
151 -99 286 -106 300 -33 66 -110 95 -170 65z m356 -920 c0 -3 12 -44 26 -92
57 -188 74 -341 55 -485 -23 -173 -59 -267 -136 -362 -36 -44 -49 -69 -52
-100 -3 -30 34 -190 131 -571 74 -291 133 -531 132 -533 -2 -1 -18 32 -36 75
-73 174 -90 216 -104 246 -8 18 -36 82 -61 142 -26 61 -63 146 -82 190 -19 44
-46 107 -60 140 -14 33 -33 78 -43 100 -10 22 -26 60 -37 85 -28 62 -56 85
-138 109 -202 59 -415 260 -530 496 -46 96 -89 215 -80 224 6 6 289 103 365
126 25 7 176 58 335 113 278 97 315 108 315 97z"/>
<path d="M770 4996 c-77 -17 -127 -46 -186 -108 -103 -106 -114 -156 -114
-539 0 -268 -1 -276 -21 -295 -50 -44 -145 -177 -195 -273 -19 -36 -46 -84
-59 -106 -38 -63 -103 -237 -127 -343 l-22 -97 -3 -1280 c-2 -796 0 -1304 6
-1343 20 -128 92 -229 201 -281 l55 -26 455 -3 455 -3 100 -96 c110 -106 188
-167 240 -189 29 -12 155 -14 764 -14 410 0 740 4 753 9 53 20 194 139 296
250 107 116 147 169 229 299 43 68 163 304 163 321 0 17 54 55 150 106 69 37
115 70 170 125 120 119 172 241 186 437 7 100 -2 129 -54 168 -25 18 -45 20
-243 23 l-216 3 -6 73 c-12 132 -50 249 -125 374 -125 209 -370 373 -659 442
-110 26 -150 22 -193 -21 -26 -26 -30 -38 -30 -82 0 -48 5 -57 55 -120 84
-105 103 -198 52 -254 -30 -33 -58 -29 -187 28 -216 96 -372 126 -592 116
l-106 -5 -5 467 c-6 515 -8 539 -73 729 -59 176 -176 381 -296 523 l-56 66 -4
314 c-5 287 -7 318 -25 366 -26 65 -49 98 -106 150 -57 53 -108 78 -182 92
-78 15 -376 13 -445 -3z m446 -261 c60 -45 64 -66 64 -332 l0 -243 -280 0
-281 0 3 259 3 259 25 27 c46 50 70 55 262 52 160 -2 179 -4 204 -22z m177
-877 c132 -158 237 -360 288 -558 21 -81 23 -109 26 -570 l4 -486 -58 -23
c-149 -58 -252 -122 -357 -221 -66 -62 -156 -175 -185 -232 l-13 -26 -165 -4
-165 -3 -35 -39 -36 -39 7 -96 c9 -137 56 -353 116 -534 48 -143 148 -367 200
-445 l22 -32 -339 0 c-297 0 -341 2 -362 16 -53 38 -51 -15 -51 1348 0 1106 2
1273 15 1333 52 225 136 400 284 590 l56 72 352 1 351 0 45 -52z m1806 -1591
c174 -113 276 -272 300 -469 l7 -58 -1060 0 -1060 0 44 46 c165 169 364 249
650 261 186 7 281 -10 440 -77 174 -74 194 -80 287 -80 98 0 142 18 211 84 71
67 95 124 100 239 2 53 6 97 9 97 2 0 35 -20 72 -43z m811 -784 c0 -4 -8 -34
-17 -67 -23 -85 -103 -164 -230 -229 -99 -51 -188 -125 -215 -178 -9 -19 -44
-90 -77 -159 -115 -239 -257 -424 -432 -563 l-46 -37 -678 0 -678 0 -46 38
c-275 224 -482 573 -584 988 -14 54 -28 117 -32 139 -3 22 -8 48 -11 58 -5 16
72 17 1520 17 839 0 1526 -3 1526 -7z"/>
</g>
</svg>
