<svg width="59" height="56" viewBox="0 0 59 56" fill="none" xmlns="http://www.w3.org/2000/svg">
<mask id="mask0_0_358" style="mask-type:alpha" maskUnits="userSpaceOnUse" x="0" y="0" width="59" height="57">
<path d="M32.0312 26.2344C33.5935 26.2344 35.0918 25.6138 36.1966 24.5091C37.3013 23.4043 37.9219 21.906 37.9219 20.3438C37.9219 18.7815 37.3013 17.2832 36.1966 16.1784C35.0918 15.0737 33.5935 14.4531 32.0312 14.4531H25.9375C25.7759 14.4531 25.6209 14.5173 25.5066 14.6316C25.3923 14.7459 25.3281 14.9009 25.3281 15.0625V25.0156H22.6875C22.5259 25.0156 22.3709 25.0798 22.2566 25.1941C22.1423 25.3084 22.0781 25.4634 22.0781 25.625C22.0781 25.7866 22.1423 25.9416 22.2566 26.0559C22.3709 26.1702 22.5259 26.2344 22.6875 26.2344H25.3281V28.2656H22.6875C22.5259 28.2656 22.3709 28.3298 22.2566 28.4441C22.1423 28.5584 22.0781 28.7134 22.0781 28.875C22.0781 29.0366 22.1423 29.1916 22.2566 29.3059C22.3709 29.4202 22.5259 29.4844 22.6875 29.4844H25.3281V32.9375C25.3281 33.0991 25.3923 33.2541 25.5066 33.3684C25.6209 33.4827 25.7759 33.5469 25.9375 33.5469C26.0991 33.5469 26.2541 33.4827 26.3684 33.3684C26.4827 33.2541 26.5469 33.0991 26.5469 32.9375V29.4844H31.625C31.7866 29.4844 31.9416 29.4202 32.0559 29.3059C32.1702 29.1916 32.2344 29.0366 32.2344 28.875C32.2344 28.7134 32.1702 28.5584 32.0559 28.4441C31.9416 28.3298 31.7866 28.2656 31.625 28.2656H26.5469V26.2344H32.0312ZM26.5469 15.6719H32.0312C33.2703 15.6719 34.4586 16.1641 35.3348 17.0402C36.2109 17.9164 36.7031 19.1047 36.7031 20.3438C36.7031 21.5828 36.2109 22.7711 35.3348 23.6473C34.4586 24.5234 33.2703 25.0156 32.0312 25.0156H26.5469V15.6719Z" fill="black"/>
<path d="M46.4068 1.00098H12.5932V27.5433H1L30.3051 55.001L58 27.5433H46.4068V1.00098Z" stroke="black" stroke-width="2" stroke-linejoin="round"/>
</mask>
<g mask="url(#mask0_0_358)">
<rect x="-5" y="-3" width="74" height="66" fill="#F2F3F4"/>
</g>
</svg>
